<?xml version="1.0" standalone="no"?>
<!DOCTYPE svg PUBLIC "-//W3C//DTD SVG 20010904//EN"
 "http://www.w3.org/TR/2001/REC-SVG-20010904/DTD/svg10.dtd">
<svg version="1.0" xmlns="http://www.w3.org/2000/svg"
 width="300.000000pt" height="300.000000pt" viewBox="0 0 300.000000 300.000000"
 preserveAspectRatio="xMidYMid meet">
<metadata>
Created by potrace 1.11, written by Peter Selinger 2001-2013
</metadata>
<g transform="translate(0.000000,300.000000) scale(0.100000,-0.100000)"
fill="#000000" stroke="none">
<path d="M848 2803 l-3 -198 -333 -3 -333 -2 3 -53 3 -52 333 -3 332 -2 -2
-178 -3 -177 -417 -3 -418 -2 0 -50 0 -50 583 0 c320 0 626 -3 680 -7 l97 -6
0 -159 0 -158 -365 0 -365 0 -48 30 c-53 32 -131 52 -174 43 l-28 -5 0 -609 0
-609 26 -6 c33 -8 160 3 185 16 10 6 23 28 29 50 l11 40 854 0 855 0 0 -49 c0
-56 7 -61 78 -61 69 1 125 16 145 41 16 20 17 62 17 570 l0 549 55 0 c71 0 72
17 7 80 -79 76 -199 103 -269 60 -31 -19 -33 -23 -33 -80 l0 -60 -365 0 -365
0 0 158 0 159 98 6 c53 4 360 7 681 7 l583 0 -7 27 c-9 36 -66 105 -126 153
-64 50 -128 74 -174 66 -40 -8 -103 -60 -136 -112 l-21 -34 -189 0 -189 0 0
180 0 180 345 0 c291 0 347 2 351 14 17 45 -129 214 -204 236 -63 19 -127 -7
-199 -81 l-58 -59 -117 0 -118 0 0 144 0 144 45 11 c33 8 48 19 60 41 31 61
33 60 -170 60 l-185 0 0 -200 0 -200 -400 0 -400 0 0 145 0 146 28 5 c34 7 55
22 70 51 28 52 26 53 -163 53 l-175 0 -2 -197z m1047 -488 l0 -180 -402 -3
-403 -2 0 185 0 185 403 -2 402 -3 0 -180z m-525 -905 l0 -180 -365 0 -365 0
0 180 0 180 365 0 365 0 0 -180z m980 0 l0 -180 -365 0 -365 0 0 180 0 180
365 0 365 0 0 -180z m-980 -470 l0 -180 -365 0 -365 0 0 180 0 180 365 0 365
0 0 -180z m980 0 l0 -180 -365 0 -365 0 0 180 0 180 365 0 365 0 0 -180z"/>
<path d="M949 581 c-8 -2 -48 -35 -89 -74 -121 -111 -290 -216 -590 -365 -151
-75 -267 -138 -257 -140 49 -10 523 111 725 184 202 73 516 224 562 270 13 14
12 18 -12 39 -51 44 -286 104 -339 86z"/>
<path d="M1740 560 c0 -6 6 -13 13 -15 223 -75 385 -155 665 -332 266 -167
302 -184 385 -185 85 0 178 36 191 74 19 55 -61 110 -314 218 -260 112 -456
168 -782 225 -164 29 -158 28 -158 15z"/>
</g>
</svg>
